<?xml version="1.0" encoding="utf-8"?>
<!-- Generator: Adobe Illustrator 23.0.2, SVG Export Plug-In . SVG Version: 6.00 Build 0)  -->
<svg version="1.1" id="Layer_1" xmlns="http://www.w3.org/2000/svg" xmlns:xlink="http://www.w3.org/1999/xlink" x="0px" y="0px"
	 viewBox="0 0 841.9 595.3" style="enable-background:new 0 0 841.9 595.3;" xml:space="preserve">
<style type="text/css">
	.st0{fill:#191919;}
</style>
<path class="st0" d="M506.5,373.2c-7.7,0-15-2-19.4-4.5c-0.2-0.1-0.4-0.4-0.4-0.6v-92.6c0-0.4,0.3-0.7,0.7-0.7h9.3
	c0.4,0,0.7,0.3,0.7,0.7v31.7c3.8-2,8.4-3,13.4-3c15.6,0,26.1,12.9,26.1,33.1C537,358.8,526.4,373.2,506.5,373.2z M508.1,310.8
	c-3.8,0-7.2,0.9-10.2,2.3c-0.3,0.1-0.4,0.4-0.4,0.7l0,50.3c0,0.3,0.2,0.6,0.4,0.7c2.5,1,5.8,1.5,9,1.5c13.7,0,19.2-11.6,19.2-28.4
	C526.1,321.2,519.6,310.8,508.1,310.8z M571.1,373.2c-16,0-25.4-6.9-25.4-20.2c0-16.1,15.8-22.3,37.4-24.4v-4.1
	c0-9.2-5-13.2-14.2-13.2c-5.5,0-11.5,1.6-16,3.9c-0.4,0.2-0.8,0-1-0.4l-2.1-5.3c-0.1-0.4,0-0.8,0.3-0.9c5.5-2.7,12.8-4.5,19.7-4.5
	c14.5,0,23.4,6.8,23.4,21.7v42.4c0,0.3-0.1,0.5-0.4,0.7C587.6,371.4,579.8,373.2,571.1,373.2z M583.1,334.3c-17,2-27,6.7-27,18.4
	c0,9,5.6,14.1,16,14.1c4,0,8-0.8,10.6-2c0.3-0.1,0.4-0.4,0.4-0.7V334.3z M647.6,372c-0.4,0-0.7-0.3-0.7-0.7v-45.3c0-10-4.1-15-15-15
	c-4.4,0-8,0.7-11.3,2c-0.3,0.1-0.5,0.4-0.5,0.7v57.6c0,0.4-0.3,0.7-0.7,0.7H610c-0.4,0-0.7-0.3-0.7-0.7v-62.1c0-0.3,0.2-0.6,0.4-0.7
	c6.1-2.7,14.1-4.5,22.2-4.5c18,0,25.9,7.8,25.9,21.9v45.3c0,0.4-0.3,0.7-0.7,0.7H647.6z M711.2,372c-0.2,0-0.4-0.1-0.6-0.3l-26-33.8
	h-0.2v33.3c0,0.4-0.3,0.7-0.7,0.7h-9.2c-0.4,0-0.7-0.3-0.7-0.7v-95.8c0-0.4,0.3-0.7,0.7-0.7h9.2c0.4,0,0.7,0.3,0.7,0.7v61.1h0.2
	l24.5-31.1c0.1-0.2,0.3-0.3,0.6-0.3h10.1c0.6,0,0.9,0.7,0.6,1.2l-25.7,30.5l28.2,33.9c0.4,0.5,0.1,1.2-0.6,1.2H711.2z M276.5,240.4
	c0-40.9-45.8-66-78.7-66c-22,0-35.7,10.8-35.7,28.1l0,11.1h-9.3c-16.2,0-33.4,17.2-33.4,33.5v124.2c0,6.4,5.2,11.6,11.6,11.6h30.2h0
	c0.2,0,0.4,0,0.5-0.1c6.2-0.3,11.1-5.4,11.1-11.6c0,0,0-119.9,0-146.9H198c13.8,0,25.1,11.3,25.1,25.1v121.8
	c0,6.4,5.2,11.6,11.6,11.6h30.2c6.4,0,11.6-5.2,11.6-11.6C276.6,317.2,276.5,240.4,276.5,240.4z M133.1,372.2
	c-1.6,0-2.9-1.3-2.9-2.9V247.2c0-10.2,12.5-22.8,22.6-22.8h9.3c0,89.5,0,135.3,0,145c0,1.6-1.3,2.9-2.9,2.9H133.1z M265.8,369.4
	c0,1.6-1.3,2.8-2.9,2.8h-26.2c-1.6,0-2.9-1.3-2.9-2.9V249.5c0-19.8-16.1-35.9-35.9-35.9h-25.1l0-11.1c0-6.5,3.2-17.3,25-17.3
	c42.1,0,67.9,32.2,67.9,55.2C265.8,240.4,265.8,315.4,265.8,369.4z M444.1,213.4h-30.2c-6.4,0-11.6,5.2-11.6,11.6
	c0,2.7,0,117.1,0,146.9h-25.1c-13.8,0-25.1-11.3-25.1-25.1V225c0-6.4-5.2-11.6-11.6-11.6h-30.2c-6.4,0-11.6,5.2-11.6,11.6
	c0,53.1,0,130.9,0,130.9c0,40.9,45.8,66,78.7,66c22,0,35.7-10.8,35.7-28.1l0-11.1h9.3c16.2,0,33.4-17.2,33.4-33.5V225
	C455.7,218.6,450.5,213.4,444.1,213.4z M402.3,393.9c0,6.5-3.2,17.3-25,17.3c-42.1,0-67.9-32.2-67.9-55.2c0,0-0.1-74.6,0-129
	c0-1.6,1.3-2.8,2.9-2.8h26.2c1.6,0,2.9,1.3,2.9,2.9v119.9c0,19.8,16.1,35.9,35.9,35.9h25.1L402.3,393.9z M445,349.2
	c0,10.2-12.5,22.8-22.6,22.8h-9.3c0-62.5,0-132.6,0-145c0-1.6,1.3-2.8,2.9-2.8h18.4h7.8c1.6,0,2.9,1.3,2.9,2.9V349.2z"/>
</svg>
